<svg width="18" height="16" viewBox="0 0 18 16" fill="none" xmlns="http://www.w3.org/2000/svg">
<path fill-rule="evenodd" clip-rule="evenodd" d="M-7.77091e-08 1C-3.47916e-08 0.447715 0.447715 4.40331e-08 1 9.83506e-08L17 1.67196e-06C17.5523 1.72628e-06 18 0.447717 18 1C18 1.55229 17.5523 2 17 2L1 2C0.447715 2 -1.20627e-07 1.55228 -7.77091e-08 1Z" fill="#141B34"/>
<path fill-rule="evenodd" clip-rule="evenodd" d="M-7.77091e-08 8C-3.47916e-08 7.44772 0.447715 7 1 7L17 7C17.5523 7 18 7.44772 18 8C18 8.55229 17.5523 9 17 9L1 9C0.447715 9 -1.20627e-07 8.55228 -7.77091e-08 8Z" fill="#141B34"/>
<path fill-rule="evenodd" clip-rule="evenodd" d="M-7.77091e-08 15C-3.47916e-08 14.4477 0.447715 14 1 14L17 14C17.5523 14 18 14.4477 18 15C18 15.5523 17.5523 16 17 16L1 16C0.447715 16 -1.20627e-07 15.5523 -7.77091e-08 15Z" fill="#141B34"/>
</svg>
